<svg xmlns="http://www.w3.org/2000/svg" width="512" height="512"><path d="M336.688 44.125C362.98 66.671 378.267 97.425 381 132c.777 11.983.187 24.844-3.188 36.438-.851 3.734-.642 6.16-.12 9.882 1.36 11.814.229 20.538-5.442 30.868C367.096 215.63 361.04 220.7 353 223c-2.77.281-5.208.203-8 0l-1.125 3.813c-4.542 13.417-14.84 29.964-27.16 37.604-4.962 3.169-4.962 3.169-7.444 8.305-.156 3.116-.06 6.104.166 9.216l.124 3.228c.105 2.616.253 5.223.439 7.834l1.406-1.49c.618-.638 1.235-1.277 1.871-1.936l1.844-1.927c2.905-2.547 5.076-2.854 8.879-2.647 4.514 2.602 7.754 5.66 11.203 9.535 12.703 14.992 12.703 14.992 30.415 21.275 1.422.04 2.845.066 4.267.076 3.73.2 7.187 1.27 10.74 2.364l2.118.646c17.361 5.507 33.52 14.095 47.257 26.104l2.89 2.488c28.463 24.964 45.045 60.55 47.86 98.2.149 3.103.205 6.205.25 9.312l.062 3.97c.054 3.813.088 7.626.111 11.44.01 1.552.022 3.103.036 4.654.018 2.203.022 4.405.021 6.608l.013 3.91c-.315 4.434-1.084 7.259-4.243 10.418-2.418.198-4.721.27-7.14.254l-2.266.01c-2.532.009-5.063.003-7.594-.003l-5.469.011c-5.029.01-10.058.008-15.087.004-5.416-.002-10.832.007-16.248.014-10.618.013-21.236.015-31.854.012-8.626-.001-17.253 0-25.88.005l-3.713.001-7.468.004c-23.37.01-46.74.009-70.11.003-21.402-.006-42.804.006-64.206.025-21.95.02-43.9.027-65.852.024-12.333-.002-24.667 0-37 .014-10.5.012-21 .014-31.499.002-5.36-.006-10.722-.007-16.083.005-4.902.01-9.804.007-14.706-.007-1.78-.002-3.558 0-5.338.008-2.407.01-4.813.002-7.22-.011l-2.124.022c-2.857-.033-4.711-.088-7.073-1.777-1.5-2.27-1.451-3.923-1.458-6.632l-.029-3.1.019-3.36-.01-3.49c-.001-2.45.004-4.898.017-7.347.016-3.687 0-7.373-.02-11.06-.015-16.447.808-32.34 6.036-48.068l.765-2.343c12.242-36.057 37.858-66.07 71.977-83.115 12.329-5.817 27.924-11.72 41.689-12.172 6.306-.302 9.176-2.063 13.37-6.648l1.681-1.73c1.755-1.813 3.48-3.65 5.206-5.493 1.747-1.832 3.5-3.659 5.258-5.481a348.78 348.78 0 0 0 3.243-3.416C185.53 286.2 185.53 286.2 189 285c3.686-.07 6.05.179 8.891 2.635l1.84 1.931 1.867 1.94L203 293c1.806-12.842 1.806-12.842-1.13-25.008-2.922-3.264-6.517-5.548-10.203-7.867-11.272-7.61-18.975-22.741-23.667-35.125v-2l-3.25.375c-7.678-.014-15.154-4.538-20.688-9.625-6.607-7.253-9.206-15.396-9.187-25v-2.05c.02-3.311.16-6.455.813-9.7.826-5.176-.827-10.367-1.918-15.414-6.527-30.411 1.063-63.781 17.785-89.676C156.42 64.76 162.028 58.246 168 52l1.848-2.04C184.454 34.394 204.696 24.628 225 19l3.602-1.031c37.674-8.865 78.577 1.617 108.085 26.156z" fill="#5298D3"/><path d="M336.688 44.125C362.98 66.671 378.267 97.425 381 132c.777 11.983.187 24.844-3.188 36.438-.851 3.734-.642 6.16-.12 9.882 1.36 11.814.229 20.538-5.442 30.868C367.096 215.63 361.04 220.7 353 223c-2.77.281-5.208.203-8 0l-1.125 3.813c-4.534 13.392-14.851 30.043-27.198 37.61-2.633 1.671-4.655 3.193-6.677 5.577-.482 2.98-.2 5.483.145 8.477.958 8.345.62 15.857-4.506 22.728-6.049 7.375-13.098 13.847-20.116 20.28-2.472 2.293-4.885 4.642-7.298 6.996a1050.083 1050.083 0 0 1-8.713 8.374l-1.675 1.6a397.318 397.318 0 0 1-4.717 4.39l-2.71 2.514C258 347 258 347 255.994 347.028c-2.746-1.416-4.748-3.223-7.022-5.319l-1.475-1.351c-4.504-4.153-8.929-8.391-13.331-12.65-2.949-2.853-5.916-5.676-8.948-8.44-22.227-20.298-22.227-20.298-22.972-34.066.075-3.304.35-6.528.686-9.814.34-3.92.34-3.92-1.09-7.477-2.96-3.283-6.427-5.562-10.191-7.834-11.297-7.37-19.012-22.833-23.651-35.077v-2l-3.25.375c-7.678-.014-15.154-4.538-20.688-9.625-6.607-7.253-9.206-15.396-9.187-25v-2.05c.02-3.311.16-6.455.813-9.7.826-5.176-.827-10.367-1.918-15.414-6.527-30.411 1.063-63.781 17.785-89.676C156.42 64.76 162.028 58.246 168 52l1.848-2.04C184.454 34.394 204.696 24.628 225 19l3.602-1.031c37.674-8.865 78.577 1.617 108.085 26.156z" fill="#FECBA9"/><path d="M336.688 44.125C362.98 66.671 378.267 97.425 381 132c.94 14.509-.593 29.131-5 43-3.675-4.523-3.675-4.523-5.32-6.938-5.395-7.783-11.859-11.07-20.68-14.062l-.078-2.266-.172-2.984-.14-2.953c-.768-3.524-1.79-4.579-4.61-6.797-2.983-.589-2.983-.589-6.338-.482l-3.896-.021-2.076.017c-2.158.017-4.316.01-6.474-.004-5.367-.03-10.733-.017-16.099-.005-4.528.008-9.057 0-13.585-.03a541.27 541.27 0 0 0-6.326.028c-14.441-.075-26.307-4.78-36.956-14.628-6.65-6.944-11.273-16.635-13.188-26.063-.674-4.025-.674-4.025-4.062-5.812-5.04.232-5.04.232-9 3-.29 2.076-.507 4.162-.688 6.25-1.34 10.192-5.447 20.31-13.296 27.293-12.082 8.733-22.345 9.784-36.852 9.848l-3.43.07-3.118.025c-2.73.28-2.73.28-4.442 2.373-1.477 2.695-1.68 4.834-1.862 7.891l-.199 2.984L163 154l-2.344.848C149.522 159.133 143.117 164.15 138 175c-4.023-4.023-4.036-11.488-5-17l-.414-2.36c-4.333-30.95 4.144-63.977 22.729-89.015C159.269 61.495 163.526 56.68 168 52l1.848-2.04C184.454 34.394 204.696 24.628 225 19l3.602-1.031c37.674-8.865 78.577 1.617 108.085 26.156z"/><path d="M196 286c3.55 2.817 6.454 6.187 9.387 9.627 7.776 9.042 16.317 17.378 24.72 25.83 2.066 2.08 4.125 4.166 6.177 6.26a1280.81 1280.81 0 0 0 7.513 7.593 696.009 696.009 0 0 1 4.22 4.3l2.6 2.591 2.279 2.303c1.941 1.683 1.941 1.683 4.075 1.514 2.81-1.41 4.651-3.274 6.87-5.503l1.416-1.41c1.543-1.54 3.075-3.09 4.606-4.64a4245.06 4245.06 0 0 1 3.229-3.234c2.258-2.263 4.51-4.53 6.76-6.802 2.865-2.893 5.738-5.777 8.614-8.657 2.76-2.766 5.516-5.537 8.272-8.307l1.57-1.575c5.24-5.264 10.418-10.53 15.166-16.25 2.834-3.045 4.535-4.602 8.776-4.765 8.827 2.648 15.693 11.885 22.063 18.25l2.705 2.668 2.595 2.59 2.337 2.325c2.812 3.144 4.756 5.968 5.675 10.104-1.839 9.378-14.726 18.433-21.363 25.06l-3.992 3.993c-2.772 2.775-5.547 5.547-8.323 8.318-3.562 3.557-7.12 7.118-10.676 10.68-2.74 2.743-5.48 5.483-8.223 8.223a4889.323 4889.323 0 0 0-3.939 3.941 3492.13 3492.13 0 0 1-5.485 5.479l-1.645 1.65c-3.202 3.184-4.957 4.619-9.4 5.598-4.682-.058-6.797-2.41-10.032-5.602a309.635 309.635 0 0 1-5.797-6.214 468.567 468.567 0 0 0-4.423-4.74 364.667 364.667 0 0 1-3.98-4.292c-2.104-2.1-2.104-2.1-4.361-1.978-2.706 1.46-4.536 3.305-6.681 5.51l-2.668 2.71-2.762 2.852c-1.813 1.856-3.628 3.71-5.445 5.563l-2.43 2.503c-2.532 2.448-3.615 2.872-7.125 3.434-9.774-1.261-18.945-14.425-25.746-21.238l-3.994-3.992c-2.775-2.772-5.547-5.547-8.318-8.323-3.557-3.562-7.118-7.12-10.68-10.676-2.743-2.74-5.483-5.48-8.223-8.223a4889.323 4889.323 0 0 0-3.941-3.939 3492.13 3492.13 0 0 1-5.479-5.485l-1.65-1.645c-4.622-4.648-4.622-4.648-5.281-8.604 1.14-8.797 10.436-15.684 16.497-21.695a890.442 890.442 0 0 0 4.706-4.72l3.023-3.015 2.74-2.734c4.584-4.103 7.418-5.027 13.471-3.211z" fill="#9FC6E6"/><path d="m173.172 137.887 3.3.05L179 138l.025 2c.086 6.929.186 13.857.292 20.784.038 2.58.073 5.158.105 7.737.046 3.726.104 7.452.164 11.178l.035 3.443c.446 24.722 8.692 46.805 24.379 65.858l1.773 2.234C219.661 268.056 242.466 280.032 264 283c6.283.596 11.95-.3 18-2l2.777-.777c8.032-2.46 14.954-6.09 22.223-10.223l2-1c1.936 9.885 3.65 21.662-2.063 30.57-6.025 8.256-13.818 15.137-21.346 21.984-2.48 2.284-4.896 4.629-7.314 6.978a997.568 997.568 0 0 1-8.73 8.359l-1.68 1.595a390.565 390.565 0 0 1-4.731 4.374l-2.719 2.506C258 347 258 347 255.993 347.026c-2.746-1.414-4.748-3.222-7.021-5.317l-1.475-1.351c-4.504-4.153-8.929-8.391-13.331-12.65-2.949-2.853-5.916-5.676-8.948-8.44-22.227-20.298-22.227-20.298-22.972-34.066.075-3.304.35-6.528.686-9.814.34-3.92.34-3.92-1.09-7.477-2.96-3.283-6.427-5.562-10.191-7.834-11.297-7.37-19.012-22.833-23.651-35.077v-2l-3.25.375c-7.678-.014-15.154-4.538-20.688-9.625-7.695-8.449-9.556-17.851-9.34-28.918.676-9.328 5.278-17.341 12.196-23.555 4.75-3.739 9.859-7.277 16.082-7.277l-.14-2.23c-.162-4.362-.216-7.863 1.39-11.958 3.336-2.198 4.98-2.002 8.922-1.925z" fill="#FEB889"/><path d="M159 314c-3.246 3.89-5.92 4.755-10.813 5.813-8.316 1.984-15.594 5.324-23.187 9.187l-3.375 1.656c-31.115 15.857-54.902 45.775-65.873 78.66-4.763 15.162-6.885 30.016-6.955 45.864l-.017 3.078c-.01 2.126-.016 4.252-.02 6.378-.01 3.252-.041 6.503-.072 9.755-.007 2.075-.012 4.15-.016 6.226l-.038 2.933c.017 4.981.12 8.389 3.366 12.45-2.771.08-5.54.14-8.313.188l-2.38.076-2.295.029-2.11.048c-2.56-.459-3.306-1.306-4.902-3.341-.381-2.29-.381-2.29-.388-5.012l-.029-3.1.019-3.36-.01-3.49c-.001-2.45.004-4.898.017-7.347.016-3.687 0-7.373-.02-11.06-.015-16.447.808-32.34 6.036-48.068l.765-2.343c12.242-36.057 37.858-66.07 71.977-83.115 14.647-6.911 32.308-12.95 48.633-12.105z" fill="#3385C8"/><path d="m204 285 2.895 1.61c21.373 11.746 46.88 18.33 71.105 11.39 10.28-2.99 19.81-6.402 29-12l2-1c1.04 5.3 1.079 9.359-1.952 13.97-2.904 3.242-5.927 6.281-9.064 9.296-1.136 1.128-2.27 2.258-3.401 3.39a724.468 724.468 0 0 1-7.153 7.018 818.008 818.008 0 0 0-9.153 9.03 1293.29 1293.29 0 0 1-7.036 6.958 908.66 908.66 0 0 0-3.373 3.335 477.202 477.202 0 0 1-4.732 4.61l-2.719 2.651C258 347 258 347 255.994 347.058c-2.792-1.481-4.767-3.385-7.038-5.587l-1.48-1.425a747.44 747.44 0 0 1-4.804-4.694l-1.66-1.628c-2.901-2.844-5.792-5.697-8.676-8.557a923.287 923.287 0 0 0-8.986-8.758 707.68 707.68 0 0 1-6.897-6.795 267.33 267.33 0 0 0-3.315-3.222c-8.713-8.343-8.713-8.343-9.8-13.583-.011-2.701.156-5.16.662-7.809z" fill="#FDCBAA"/><path d="M263 16v1l-3.742.445C226.033 21.712 195.87 37.317 175 64c-10.506 14.049-17.737 28.99-22 46l-1.04 3.273c-1.868 7.25-2.02 14.252-1.812 21.711l.053 2.151c.108 4.432.108 4.432.272 8.863.524 12.537.524 12.537-1.955 16.18-1.767 1.458-3.574 2.619-5.518 3.822-1.792 2.446-1.792 2.446-2.938 4.875l-1.214 2.367L138 175c-4.023-4.023-4.036-11.488-5-17l-.414-2.36c-4.333-30.95 4.144-63.977 22.729-89.015C159.269 61.495 163.526 56.68 168 52l1.848-2.04C193.998 24.22 228.91 15.08 263 16z" fill="#2A4D6B"/><path d="M395 432c2.58 1.653 3.577 2.38 5 5 .71 4.465.58 8.884.488 13.395l-.021 3.946a981.326 981.326 0 0 1-.124 10.352c-.051 3.526-.074 7.052-.099 10.578-.053 6.91-.141 13.82-.244 20.729h-16c-.113-7.606-.205-15.212-.26-22.819a1220.2 1220.2 0 0 0-.117-10.596 1157.65 1157.65 0 0 1-.111-12.19l-.078-3.833c-.004-9.77-.004-9.77 2.909-12.86 3.299-2.113 4.815-2.502 8.657-1.702zM123 432c2.58 1.653 3.577 2.38 5 5 .71 4.465.58 8.884.488 13.395l-.021 3.946a981.326 981.326 0 0 1-.124 10.352c-.051 3.526-.074 7.052-.099 10.578-.053 6.91-.141 13.82-.244 20.729h-16c-.113-7.606-.205-15.212-.26-22.819a1220.2 1220.2 0 0 0-.117-10.596 1157.65 1157.65 0 0 1-.111-12.19l-.078-3.833c-.004-9.77-.004-9.77 2.909-12.86 3.299-2.113 4.815-2.502 8.657-1.702z" fill="#3385C8"/></svg>